# File created by Blade
# Date/Time:  Thu Jan 22 19:08:58 2015
# Frame Rate: 120.000 fps
#------------------------------------------------------
:FULLY-SPECIFIED
:DEGREES
3089
root -2.597220 33.105783 -1.647230 7.380045 -0.961157 2.536487
RightUpLeg -3.940338 -9.297217 -2.507062
RightLeg 1.525639 -0.000000 -0.000000
RightFoot -11.867020 -4.850484 2.562168
RightToeBase 2.543181 -0.000000 -0.000000
LeftUpLeg -4.215205 4.558531 3.156452
LeftLeg 2.342586 -0.000000 -0.000000
LeftFoot -8.875719 0.756632 -10.552050
LeftToeBase 7.293505 -0.000000 -0.000000
Spine -10.332573 -0.452212 -1.302953
RightShoulder -4.670613 1.002222 -31.295379
RightArm 56.958502 2.324964 42.429810
RightForeArm -11.888472 -0.000000 14.637665
RightHand 10.888701 -0.000000 11.725611
RightHandThumb1 -24.326973 -0.000000 -32.862282
LeftShoulder -13.346162 -4.393926 32.340014
LeftArm 55.470603 2.224595 -40.817259
LeftForeArm 22.680731 -0.000000 8.676483
LeftHand -1.235954 -0.000000 -11.718215
LeftHandThumb1 -26.253704 0.000000 33.147579
Head 0.335876 5.111034 -0.417777
3090
root -2.595851 33.103490 -1.620724 7.365627 -0.950574 2.564686
RightUpLeg -3.815462 -9.497101 -2.539024
RightLeg 1.303208 -0.000000 -0.000000
RightFoot -11.651050 -4.674363 2.754809
RightToeBase 4.420581 -0.000000 -0.000000
LeftUpLeg -4.140085 4.509124 3.134631
LeftLeg 2.311181 -0.000000 -0.000000
LeftFoot -8.904471 0.776399 -10.576878
LeftToeBase 7.380938 -0.000000 -0.000000
Spine -10.317332 -0.420010 -1.323207
RightShoulder -4.899527 0.594544 -31.160774
RightArm 56.075173 2.617717 41.898736
RightForeArm -11.752635 -0.000000 14.701837
RightHand 10.938344 0.000000 11.615243
RightHandThumb1 -24.326973 -0.000000 -32.862282
LeftShoulder -13.496473 -4.235571 32.283604
LeftArm 54.457912 2.034249 -40.354607
LeftForeArm 22.653870 0.000000 8.708900
LeftHand -1.308510 -0.000000 -11.808944
LeftHandThumb1 -26.253704 0.000000 33.147579
Head 0.347251 5.087185 -0.425276
3091
root -2.597802 33.101529 -1.598280 7.383312 -0.967651 2.582823
RightUpLeg -3.742121 -9.654367 -2.542982
RightLeg 1.122820 -0.000000 -0.000000
RightFoot -11.461157 -4.548598 2.820337
RightToeBase 5.075151 -0.000000 -0.000000
LeftUpLeg -4.107602 4.499689 3.124786
LeftLeg 2.299787 -0.000000 -0.000000
LeftFoot -8.926238 0.775995 -10.604684
LeftToeBase 7.375268 -0.000000 -0.000000
Spine -10.320480 -0.380590 -1.345838
RightShoulder -5.120523 0.057516 -30.987876
RightArm 55.294689 3.033211 41.382937
RightForeArm -11.534646 -0.000000 14.734301
RightHand 10.951367 -0.000000 11.602787
RightHandThumb1 -24.326973 -0.000000 -32.862282
LeftShoulder -13.680846 -3.894782 32.164027
LeftArm 53.598773 1.625652 -39.969705
LeftForeArm 22.775696 -0.000000 8.645845
LeftHand -1.304741 -0.000000 -11.867834
LeftHandThumb1 -26.253704 0.000000 33.147579
Head 0.336441 5.044453 -0.411489
3092
root -2.601494 33.099215 -1.578228 7.423226 -1.007964 2.598972
RightUpLeg -3.704962 -9.711737 -2.542836
RightLeg 1.006080 -0.000000 -0.000000
RightFoot -11.372011 -4.483254 2.835381
RightToeBase 5.078738 -0.000000 -0.000000
LeftUpLeg -4.096243 4.497475 3.117925
LeftLeg 2.286454 -0.000000 -0.000000
LeftFoot -8.955066 0.784588 -10.644567
LeftToeBase 7.376802 -0.000000 -0.000000
Spine -10.327662 -0.347515 -1.361614
RightShoulder -5.332976 -0.429968 -30.823901
RightArm 54.495932 3.439471 40.911255
RightForeArm -11.359805 -0.000000 14.767233
RightHand 11.044905 -0.000000 11.487297
RightHandThumb1 -24.326973 -0.000000 -32.862282
LeftShoulder -13.914936 -3.546746 32.020985
LeftArm 52.715301 1.282816 -39.433829
LeftForeArm 22.666183 -0.000000 8.651455
LeftHand -1.308931 -0.000000 -12.060175
LeftHandThumb1 -26.253704 0.000000 33.147579
Head 0.315745 5.013975 -0.433169
3093
root -2.604397 33.098298 -1.554747 7.447130 -1.043536 2.611391
RightUpLeg -3.629993 -9.776059 -2.546030
RightLeg 0.874166 -0.000000 -0.000000
RightFoot -11.308864 -4.409730 2.908845
RightToeBase 5.385402 -0.000000 -0.000000
LeftUpLeg -4.054947 4.494454 3.112141
LeftLeg 2.255886 -0.000000 -0.000000
LeftFoot -8.971964 0.793371 -10.713750
LeftToeBase 7.412055 -0.000000 -0.000000
Spine -10.336973 -0.305779 -1.375147
RightShoulder -5.552903 -0.911766 -30.661207
RightArm 53.652687 3.847942 40.488657
RightForeArm -11.247174 -0.000000 14.813662
RightHand 11.053797 -0.000000 11.600006
RightHandThumb1 -24.326973 -0.000000 -32.862282
LeftShoulder -14.105286 -3.148967 31.886222
LeftArm 51.830685 0.943850 -38.929256
LeftForeArm 22.734876 -0.000000 8.627545
LeftHand -1.346702 -0.000000 -11.845556
LeftHandThumb1 -26.253704 0.000000 33.147579
Head 0.303421 5.017933 -0.459618
3094
root -2.608591 33.098281 -1.529828 7.464154 -1.083124 2.609197
RightUpLeg -3.540869 -9.869817 -2.533658
RightLeg 0.721760 -0.000000 -0.000000
RightFoot -11.237192 -4.308610 2.954846
RightToeBase 5.623905 -0.000000 -0.000000
LeftUpLeg -4.005478 4.488026 3.122090
LeftLeg 2.230849 -0.000000 -0.000000
LeftFoot -8.996897 0.819506 -10.737126
LeftToeBase 7.402184 -0.000000 -0.000000
Spine -10.335647 -0.236690 -1.374793
RightShoulder -5.808556 -1.479493 -30.476370
RightArm 52.877925 4.291177 40.050427
RightForeArm -11.118294 -0.000000 14.837428
RightHand 11.032007 -0.000000 11.569111
RightHandThumb1 -24.326973 -0.000000 -32.862282
LeftShoulder -14.248355 -3.155499 31.847073
LeftArm 50.603226 0.825287 -38.517593
LeftForeArm 22.727076 -0.000000 8.659685
LeftHand -1.262051 -0.000000 -11.746211
LeftHandThumb1 -26.253704 0.000000 33.147579
Head 0.283717 4.979086 -0.483666
3095
root -2.610386 33.099634 -1.505579 7.486466 -1.137021 2.597034
RightUpLeg -3.466824 -9.945715 -2.522172
RightLeg 0.585041 -0.000000 -0.000000
RightFoot -11.162794 -4.225045 3.052160
RightToeBase 5.375743 -0.000000 -0.000000
LeftUpLeg -3.958505 4.518400 3.131638
LeftLeg 2.201763 -0.000000 -0.000000
LeftFoot -9.022028 0.841826 -10.752124
LeftToeBase 7.439481 -0.000000 -0.000000
Spine -10.317351 -0.171925 -1.346673
RightShoulder -6.059068 -1.939010 -30.318930
RightArm 52.020454 4.680894 39.633133
RightForeArm -10.943120 -0.000000 14.892759
RightHand 11.231631 -0.000000 11.539737
RightHandThumb1 -24.326973 -0.000000 -32.862282
LeftShoulder -14.450806 -2.923706 31.738931
LeftArm 49.535142 0.594852 -38.026255
LeftForeArm 22.526880 -0.000000 8.736757
LeftHand -1.243480 -0.000000 -11.873977
LeftHandThumb1 -26.253704 0.000000 33.147579
Head 0.247544 4.931980 -0.516461
3096
root -2.609222 33.100889 -1.482761 7.530301 -1.205317 2.599897
RightUpLeg -3.435390 -10.030924 -2.530455
RightLeg 0.486555 -0.000000 -0.000000
RightFoot -11.122732 -4.088148 3.177138
RightToeBase 5.427858 -0.000000 -0.000000
LeftUpLeg -3.935804 4.553905 3.115242
LeftLeg 2.175651 -0.000000 -0.000000
LeftFoot -9.041604 0.883589 -10.779262
LeftToeBase 7.457515 -0.000000 -0.000000
Spine -10.320790 -0.151464 -1.283545
RightShoulder -6.260864 -2.388807 -30.260457
RightArm 51.166526 5.221951 39.547817
RightForeArm -11.096360 0.000000 14.990274
RightHand 11.129286 -0.000000 11.558788
RightHandThumb1 -24.326973 -0.000000 -32.862282
LeftShoulder -14.654474 -2.453585 31.516624
LeftArm 48.510382 0.102238 -37.576821
LeftForeArm 22.313296 0.000000 8.830004
LeftHand -1.063435 -0.000000 -11.930931
LeftHandThumb1 -26.253704 0.000000 33.147579
Head 0.188757 4.987390 -0.691780
3097
root -2.611988 33.103153 -1.459008 7.563491 -1.274935 2.586388
RightUpLeg -3.394163 -10.103787 -2.519233
RightLeg 0.389980 -0.000000 -0.000000
RightFoot -11.052494 -3.945771 3.299054
RightToeBase 5.552005 -0.000000 -0.000000
LeftUpLeg -3.900614 4.594068 3.122445
LeftLeg 2.150683 -0.000000 -0.000000
LeftFoot -9.053529 0.933209 -10.767788
LeftToeBase 7.476578 -0.000000 -0.000000
Spine -10.313405 -0.102496 -1.270057
RightShoulder -6.498682 -2.847222 -30.077429
RightArm 50.298089 5.641313 39.181129
RightForeArm -10.904097 -0.000000 15.039960
RightHand 11.163162 -0.000000 11.516083
RightHandThumb1 -24.326973 -0.000000 -32.862282
LeftShoulder -14.869296 -2.347373 31.438833
LeftArm 47.374498 -0.012124 -37.092258
LeftForeArm 22.215787 -0.000000 8.821595
LeftHand -1.120907 -0.000000 -11.945209
LeftHandThumb1 -26.253704 0.000000 33.147579
Head 0.148667 5.024333 -0.703204
3098
root -2.614928 33.104598 -1.434887 7.596287 -1.363047 2.578506
RightUpLeg -3.372027 -10.139493 -2.517293
RightLeg 0.328560 -0.000000 -0.000000
RightFoot -11.013356 -3.825292 3.345245
RightToeBase 5.627492 -0.000000 -0.000000
LeftUpLeg -3.864128 4.662016 3.123701
LeftLeg 2.134276 -0.000000 -0.000000
LeftFoot -9.085714 0.952311 -10.800893
LeftToeBase 7.523016 -0.000000 -0.000000
Spine -10.289189 -0.023940 -1.242565
RightShoulder -6.753169 -3.388652 -29.940377
RightArm 49.498652 6.082674 38.829547
RightForeArm -10.510352 -0.000000 15.066126
RightHand 10.991403 -0.000000 11.299578
RightHandThumb1 -24.326973 -0.000000 -32.862282
LeftShoulder -15.139762 -1.911028 31.209022
LeftArm 46.636161 -0.325836 -36.505878
LeftForeArm 21.802791 -0.000000 8.484916
LeftHand -0.901953 -0.000000 -11.530253
LeftHandThumb1 -26.253704 0.000000 33.147579
Head 0.067189 5.019932 -0.784952
